<mxfile host="app.diagrams.net" modified="2023-07-01T00:51:28.319Z" agent="Mozilla/5.0 (Windows NT 10.0; Win64; x64) AppleWebKit/537.36 (KHTML, like Gecko) Chrome/114.0.0.0 Safari/537.36" etag="ox_pzcW04Gjwu5VmMrbP" version="21.5.2" type="github">
  <diagram name="第 1 页" id="_qOboxsrLPu8yiVSTIij">
    <mxGraphModel dx="954" dy="576" grid="1" gridSize="10" guides="1" tooltips="1" connect="1" arrows="1" fold="1" page="1" pageScale="1" pageWidth="827" pageHeight="1169" math="0" shadow="0">
      <root>
        <mxCell id="0" />
        <mxCell id="1" parent="0" />
        <mxCell id="HXlSOoz1HeCPplJfQvag-1" value="" style="whiteSpace=wrap;html=1;" vertex="1" parent="1">
          <mxGeometry x="160" y="160" width="560" height="320" as="geometry" />
        </mxCell>
        <mxCell id="HXlSOoz1HeCPplJfQvag-2" value="" style="endArrow=none;html=1;rounded=0;exitX=0;exitY=0.5;exitDx=0;exitDy=0;" edge="1" parent="1" source="HXlSOoz1HeCPplJfQvag-1">
          <mxGeometry width="50" height="50" relative="1" as="geometry">
            <mxPoint x="169.99999999999991" y="322.24" as="sourcePoint" />
            <mxPoint x="720" y="320" as="targetPoint" />
          </mxGeometry>
        </mxCell>
        <mxCell id="HXlSOoz1HeCPplJfQvag-3" value="" style="endArrow=none;html=1;rounded=0;entryX=0.5;entryY=0;entryDx=0;entryDy=0;exitX=0.5;exitY=1;exitDx=0;exitDy=0;" edge="1" parent="1" source="HXlSOoz1HeCPplJfQvag-1" target="HXlSOoz1HeCPplJfQvag-1">
          <mxGeometry width="50" height="50" relative="1" as="geometry">
            <mxPoint x="390" y="220" as="sourcePoint" />
            <mxPoint x="440" y="170" as="targetPoint" />
          </mxGeometry>
        </mxCell>
        <mxCell id="HXlSOoz1HeCPplJfQvag-4" value="重&lt;br&gt;要&lt;br&gt;性" style="rounded=0;whiteSpace=wrap;html=1;" vertex="1" parent="1">
          <mxGeometry x="110" y="280" width="30" height="80" as="geometry" />
        </mxCell>
        <mxCell id="HXlSOoz1HeCPplJfQvag-5" value="紧急性" style="rounded=0;whiteSpace=wrap;html=1;" vertex="1" parent="1">
          <mxGeometry x="400" y="490" width="80" height="30" as="geometry" />
        </mxCell>
        <mxCell id="HXlSOoz1HeCPplJfQvag-6" value="重要&lt;br&gt;不紧急" style="whiteSpace=wrap;html=1;" vertex="1" parent="1">
          <mxGeometry x="260" y="210" width="80" height="50" as="geometry" />
        </mxCell>
        <mxCell id="HXlSOoz1HeCPplJfQvag-7" value="重要&lt;br&gt;紧急" style="whiteSpace=wrap;html=1;" vertex="1" parent="1">
          <mxGeometry x="540" y="210" width="80" height="50" as="geometry" />
        </mxCell>
        <mxCell id="HXlSOoz1HeCPplJfQvag-8" value="不重要&lt;br&gt;不紧急" style="whiteSpace=wrap;html=1;" vertex="1" parent="1">
          <mxGeometry x="260" y="370" width="80" height="50" as="geometry" />
        </mxCell>
        <mxCell id="HXlSOoz1HeCPplJfQvag-9" value="不重要&lt;br&gt;紧急" style="whiteSpace=wrap;html=1;" vertex="1" parent="1">
          <mxGeometry x="540" y="370" width="80" height="50" as="geometry" />
        </mxCell>
        <mxCell id="HXlSOoz1HeCPplJfQvag-10" value="不紧急" style="text;html=1;strokeColor=none;fillColor=none;align=center;verticalAlign=middle;whiteSpace=wrap;rounded=0;" vertex="1" parent="1">
          <mxGeometry x="270" y="490" width="60" height="30" as="geometry" />
        </mxCell>
        <mxCell id="HXlSOoz1HeCPplJfQvag-11" value="紧急" style="text;html=1;strokeColor=none;fillColor=none;align=center;verticalAlign=middle;whiteSpace=wrap;rounded=0;" vertex="1" parent="1">
          <mxGeometry x="550" y="490" width="60" height="30" as="geometry" />
        </mxCell>
        <mxCell id="HXlSOoz1HeCPplJfQvag-12" value="不重要" style="text;html=1;strokeColor=none;fillColor=none;align=center;verticalAlign=middle;whiteSpace=wrap;rounded=0;" vertex="1" parent="1">
          <mxGeometry x="112.5" y="390" width="25" height="60" as="geometry" />
        </mxCell>
        <mxCell id="HXlSOoz1HeCPplJfQvag-13" value="重要" style="text;html=1;strokeColor=none;fillColor=none;align=center;verticalAlign=middle;whiteSpace=wrap;rounded=0;" vertex="1" parent="1">
          <mxGeometry x="112.5" y="190" width="25" height="60" as="geometry" />
        </mxCell>
      </root>
    </mxGraphModel>
  </diagram>
</mxfile>
